<svg width="14" height="14" viewBox="0 0 14 14" fill="none" xmlns="http://www.w3.org/2000/svg">
<path d="M6.47501 13.2708H4.02501C1.74417 13.2708 0.729172 12.2558 0.729172 9.97501V7.52501C0.729172 5.24417 1.74417 4.22917 4.02501 4.22917H6.47501C8.75584 4.22917 9.77084 5.24417 9.77084 7.52501V9.97501C9.77084 12.2558 8.75584 13.2708 6.47501 13.2708ZM4.02501 5.10417C2.21667 5.10417 1.60417 5.71667 1.60417 7.52501V9.97501C1.60417 11.7833 2.21667 12.3958 4.02501 12.3958H6.47501C8.28334 12.3958 8.89584 11.7833 8.89584 9.97501V7.52501C8.89584 5.71667 8.28334 5.10417 6.47501 5.10417H4.02501Z" fill="#9094A0"/>
<path d="M9.97501 9.77082H9.33334C9.09417 9.77082 8.89584 9.57249 8.89584 9.33332V7.52499C8.89584 5.71666 8.28334 5.10416 6.47501 5.10416H4.66667C4.42751 5.10416 4.22917 4.90582 4.22917 4.66666V4.02499C4.22917 1.74416 5.24417 0.729156 7.52501 0.729156H9.97501C12.2558 0.729156 13.2708 1.74416 13.2708 4.02499V6.47499C13.2708 8.75582 12.2558 9.77082 9.97501 9.77082ZM9.77084 8.89582H9.97501C11.7833 8.89582 12.3958 8.28332 12.3958 6.47499V4.02499C12.3958 2.21666 11.7833 1.60416 9.97501 1.60416H7.52501C5.71667 1.60416 5.10417 2.21666 5.10417 4.02499V4.22916H6.47501C8.75584 4.22916 9.77084 5.24416 9.77084 7.52499V8.89582Z" fill="#9094A0"/>
</svg>
