<svg width="14" height="14" viewBox="0 0 14 14" fill="none" xmlns="http://www.w3.org/2000/svg">
<path d="M7.58333 6.85417C7.4725 6.85417 7.36167 6.81334 7.27417 6.72584C7.105 6.55667 7.105 6.27667 7.27417 6.1075L12.0575 1.32417C12.2267 1.155 12.5067 1.155 12.6758 1.32417C12.845 1.49334 12.845 1.77334 12.6758 1.9425L7.8925 6.72584C7.805 6.81334 7.69417 6.85417 7.58333 6.85417Z" fill="#9094A0"/>
<path d="M12.8333 4.40416C12.5942 4.40416 12.3958 4.20582 12.3958 3.96666V1.60416H10.0333C9.79417 1.60416 9.59584 1.40582 9.59584 1.16666C9.59584 0.92749 9.79417 0.729156 10.0333 0.729156H12.8333C13.0725 0.729156 13.2708 0.92749 13.2708 1.16666V3.96666C13.2708 4.20582 13.0725 4.40416 12.8333 4.40416Z" fill="#9094A0"/>
<path d="M8.75001 13.2708H5.25001C2.08251 13.2708 0.729172 11.9175 0.729172 8.74999V5.24999C0.729172 2.08249 2.08251 0.729156 5.25001 0.729156H6.41667C6.65584 0.729156 6.85417 0.92749 6.85417 1.16666C6.85417 1.40582 6.65584 1.60416 6.41667 1.60416H5.25001C2.56084 1.60416 1.60417 2.56082 1.60417 5.24999V8.74999C1.60417 11.4392 2.56084 12.3958 5.25001 12.3958H8.75001C11.4392 12.3958 12.3958 11.4392 12.3958 8.74999V7.58332C12.3958 7.34416 12.5942 7.14582 12.8333 7.14582C13.0725 7.14582 13.2708 7.34416 13.2708 7.58332V8.74999C13.2708 11.9175 11.9175 13.2708 8.75001 13.2708Z" fill="#9094A0"/>
</svg>
