<svg width="76" height="75" viewBox="0 0 76 75" fill="none" xmlns="http://www.w3.org/2000/svg">
<g id="lock">
<rect x="0.5" width="75" height="75" rx="36" fill="#30333B"/>
<g id="vuesax/outline/lock">
<g id="lock_2">
<path id="Vector" d="M48.2272 35.3693C47.5284 35.3693 46.9488 34.7898 46.9488 34.0909V30.6818C46.9488 25.3125 45.4318 21.733 38 21.733C30.5682 21.733 29.0511 25.3125 29.0511 30.6818V34.0909C29.0511 34.7898 28.4716 35.3693 27.7727 35.3693C27.0738 35.3693 26.4943 34.7898 26.4943 34.0909V30.6818C26.4943 25.7386 27.6875 19.1761 38 19.1761C48.3125 19.1761 49.5057 25.7386 49.5057 30.6818V34.0909C49.5057 34.7898 48.9261 35.3693 48.2272 35.3693Z" fill="#CCCED4"/>
<path id="Vector_2" d="M46.5227 55.8239H29.4773C21.9602 55.8239 19.6761 53.5398 19.6761 46.0227V42.6136C19.6761 35.0966 21.9602 32.8125 29.4773 32.8125H46.5227C54.0398 32.8125 56.3238 35.0966 56.3238 42.6136V46.0227C56.3238 53.5398 54.0398 55.8239 46.5227 55.8239ZM29.4773 35.3693C23.375 35.3693 22.2329 36.5284 22.2329 42.6136V46.0227C22.2329 52.108 23.375 53.267 29.4773 53.267H46.5227C52.625 53.267 53.767 52.108 53.767 46.0227V42.6136C53.767 36.5284 52.625 35.3693 46.5227 35.3693H29.4773Z" fill="#CCCED4"/>
<path id="Vector_3" d="M31.1818 46.0227C30.9602 46.0227 30.7386 45.9716 30.5341 45.8863C30.3125 45.8011 30.1421 45.6818 29.9716 45.5284C29.6648 45.2045 29.4773 44.7784 29.4773 44.3181C29.4773 44.0966 29.5284 43.875 29.6136 43.6704C29.6988 43.4488 29.8182 43.2784 29.9716 43.1079C30.1421 42.9545 30.3125 42.8352 30.5341 42.7499C31.1477 42.4772 31.9147 42.6307 32.392 43.1079C32.5454 43.2784 32.6648 43.4659 32.75 43.6704C32.8352 43.875 32.8864 44.0966 32.8864 44.3181C32.8864 44.7613 32.6988 45.2045 32.392 45.5284C32.0682 45.8352 31.625 46.0227 31.1818 46.0227Z" fill="#CCCED4"/>
<path id="Vector_4" d="M38 46.0228C37.5568 46.0228 37.1136 45.8353 36.7898 45.5285C36.483 45.2046 36.2954 44.7785 36.2954 44.3182C36.2954 44.0967 36.3295 43.8751 36.4318 43.6705C36.517 43.466 36.6364 43.2785 36.7898 43.108C37.1818 42.716 37.7784 42.5285 38.3239 42.6478C38.4432 42.6648 38.5454 42.6989 38.6477 42.75C38.75 42.7841 38.8523 42.8353 38.9545 42.9035C39.0398 42.9546 39.125 43.0398 39.2102 43.108C39.3636 43.2785 39.483 43.466 39.5682 43.6705C39.6534 43.8751 39.7045 44.0967 39.7045 44.3182C39.7045 44.7785 39.517 45.2046 39.2102 45.5285C39.125 45.5966 39.0398 45.6648 38.9545 45.733C38.8523 45.8012 38.75 45.8524 38.6477 45.8864C38.5454 45.9376 38.4432 45.9717 38.3239 45.9887C38.2216 46.0058 38.1023 46.0228 38 46.0228Z" fill="#CCCED4"/>
<path id="Vector_5" d="M44.8182 46.0228C44.3579 46.0228 43.9318 45.8353 43.6079 45.5285C43.4545 45.358 43.3352 45.1705 43.25 44.966C43.1647 44.7614 43.1136 44.5398 43.1136 44.3182C43.1136 43.8751 43.3011 43.4319 43.6079 43.108C43.6932 43.0398 43.7784 42.9717 43.8636 42.9035C43.9659 42.8353 44.0682 42.7841 44.1704 42.75C44.2727 42.6989 44.375 42.6648 44.4772 42.6478C45.0397 42.5285 45.6193 42.716 46.0284 43.108C46.3352 43.4319 46.5227 43.858 46.5227 44.3182C46.5227 44.5398 46.4716 44.7614 46.3864 44.966C46.3011 45.1876 46.1818 45.358 46.0284 45.5285C45.7045 45.8353 45.2613 46.0228 44.8182 46.0228Z" fill="#CCCED4"/>
</g>
</g>
</g>
</svg>
