<svg width="177" height="30" viewBox="0 0 177 30" fill="none" xmlns="http://www.w3.org/2000/svg">
<path d="M0 30H30V0H0V30ZM24.2257 12.1134H17.8866V5.77427H24.2257V12.1134ZM5.7731 5.77427H12.1158V17.8865H24.2257V24.2257H5.7731V5.77427Z" fill="#2EF8E0"/>
<path d="M42.256 24V6.96H47.848C49.384 6.96 50.616 7.4 51.544 8.28C52.472 9.16 52.936 10.224 52.936 11.472C52.936 13.04 52.328 14.2 51.112 14.952C53.08 15.672 54.064 17.032 54.064 19.032C54.064 20.472 53.536 21.664 52.48 22.608C51.44 23.536 50.064 24 48.352 24H42.256ZM44.488 21.984H48.448C49.568 21.984 50.416 21.728 50.992 21.216C51.584 20.688 51.88 19.984 51.88 19.104C51.88 18.24 51.584 17.544 50.992 17.016C50.416 16.472 49.576 16.2 48.472 16.2H44.488V21.984ZM44.488 14.28H47.848C48.744 14.28 49.448 14.04 49.96 13.56C50.488 13.064 50.752 12.424 50.752 11.64C50.752 10.888 50.488 10.256 49.96 9.744C49.432 9.232 48.728 8.976 47.848 8.976H44.488V14.28ZM57.2143 24V12H59.2783V14.328C59.5023 13.592 59.9343 13 60.5743 12.552C61.2303 12.104 61.9183 11.88 62.6383 11.88C62.9903 11.88 63.3023 11.912 63.5743 11.976V14.112C63.2863 13.984 62.9103 13.92 62.4463 13.92C61.6143 13.92 60.8783 14.28 60.2383 15C59.5983 15.72 59.2783 16.736 59.2783 18.048V24H57.2143ZM71.1095 24.24C69.3015 24.24 67.7975 23.64 66.5975 22.44C65.4135 21.224 64.8215 19.744 64.8215 18C64.8215 16.256 65.4135 14.784 66.5975 13.584C67.7975 12.368 69.3015 11.76 71.1095 11.76C72.9015 11.76 74.3895 12.368 75.5735 13.584C76.7735 14.784 77.3735 16.256 77.3735 18C77.3735 19.744 76.7735 21.224 75.5735 22.44C74.3895 23.64 72.9015 24.24 71.1095 24.24ZM68.0855 21.072C68.8695 21.904 69.8775 22.32 71.1095 22.32C72.3415 22.32 73.3415 21.904 74.1095 21.072C74.8775 20.24 75.2615 19.216 75.2615 18C75.2615 16.784 74.8775 15.76 74.1095 14.928C73.3415 14.096 72.3415 13.68 71.1095 13.68C69.8775 13.68 68.8695 14.096 68.0855 14.928C67.3175 15.76 66.9335 16.784 66.9335 18C66.9335 19.216 67.3175 20.24 68.0855 21.072ZM89.1042 24L82.6002 18V24H80.5362V6H82.6002V16.68L87.8322 12H90.5682L84.6642 17.304L91.8882 24H89.1042ZM98.1802 24.24C96.3402 24.24 94.8442 23.648 93.6922 22.464C92.5402 21.28 91.9642 19.792 91.9642 18C91.9642 16.224 92.5482 14.744 93.7162 13.56C94.8842 12.36 96.3802 11.76 98.2042 11.76C99.8202 11.76 101.172 12.304 102.26 13.392C103.364 14.464 103.916 15.928 103.916 17.784C103.916 18.024 103.908 18.232 103.892 18.408H94.0522C94.0842 19.528 94.4842 20.464 95.2522 21.216C96.0362 21.968 97.0202 22.344 98.2042 22.344C99.8842 22.344 101.132 21.648 101.948 20.256L103.58 21.384C102.412 23.288 100.612 24.24 98.1802 24.24ZM94.1962 16.728H101.804C101.644 15.768 101.22 15.008 100.532 14.448C99.8602 13.872 99.0602 13.584 98.1322 13.584C97.1882 13.584 96.3402 13.872 95.5882 14.448C94.8522 15.008 94.3882 15.768 94.1962 16.728ZM107.046 24V12H109.11V14.328C109.334 13.592 109.766 13 110.406 12.552C111.062 12.104 111.75 11.88 112.47 11.88C112.822 11.88 113.134 11.912 113.406 11.976V14.112C113.118 13.984 112.742 13.92 112.278 13.92C111.446 13.92 110.71 14.28 110.07 15C109.43 15.72 109.11 16.736 109.11 18.048V24H107.046ZM120.955 24.288C119.611 24.288 118.387 24.024 117.283 23.496C116.195 22.952 115.347 22.2 114.739 21.24L117.403 19.008C117.819 19.632 118.355 20.128 119.011 20.496C119.683 20.848 120.379 21.024 121.099 21.024C121.787 21.024 122.339 20.872 122.755 20.568C123.171 20.264 123.379 19.864 123.379 19.368C123.379 18.888 123.195 18.472 122.827 18.12C122.459 17.768 121.851 17.448 121.003 17.16L119.563 16.656C116.763 15.68 115.363 14.056 115.363 11.784C115.363 10.216 115.899 8.976 116.971 8.064C118.043 7.136 119.427 6.672 121.123 6.672C123.299 6.672 125.091 7.456 126.499 9.024L124.195 11.4C123.379 10.424 122.363 9.936 121.147 9.936C120.523 9.936 119.987 10.072 119.539 10.344C119.091 10.6 118.867 10.968 118.867 11.448C118.867 11.944 119.059 12.336 119.443 12.624C119.843 12.912 120.531 13.232 121.507 13.584L122.875 14.088C125.579 15.096 126.931 16.784 126.931 19.152C126.931 20.672 126.371 21.912 125.251 22.872C124.147 23.816 122.715 24.288 120.955 24.288ZM139.459 24L137.203 17.184L134.971 24H131.707L127.723 12H131.227L133.507 19.68L135.931 12H138.451L140.899 19.68L143.155 12H146.683L142.723 24H139.459ZM153.29 24.264C151.706 24.264 150.37 23.648 149.282 22.416C148.194 21.184 147.65 19.712 147.65 18C147.65 16.288 148.194 14.816 149.282 13.584C150.37 12.352 151.706 11.736 153.29 11.736C154.058 11.736 154.746 11.896 155.354 12.216C155.962 12.536 156.426 12.912 156.746 13.344V12H160.034V24H156.746V22.656C156.426 23.088 155.962 23.464 155.354 23.784C154.746 24.104 154.058 24.264 153.29 24.264ZM151.778 20.352C152.338 20.96 153.074 21.264 153.986 21.264C154.898 21.264 155.626 20.96 156.17 20.352C156.73 19.744 157.01 18.96 157.01 18C157.01 17.04 156.73 16.256 156.17 15.648C155.626 15.04 154.898 14.736 153.986 14.736C153.074 14.736 152.338 15.04 151.778 15.648C151.234 16.256 150.962 17.04 150.962 18C150.962 18.96 151.234 19.744 151.778 20.352ZM166.719 29.016H163.431V12H166.719V13.344C167.023 12.912 167.487 12.536 168.111 12.216C168.735 11.896 169.431 11.736 170.199 11.736C171.783 11.736 173.119 12.352 174.207 13.584C175.295 14.816 175.839 16.288 175.839 18C175.839 19.712 175.295 21.184 174.207 22.416C173.119 23.648 171.783 24.264 170.199 24.264C169.431 24.264 168.735 24.104 168.111 23.784C167.487 23.464 167.023 23.088 166.719 22.656V29.016ZM167.271 20.352C167.831 20.96 168.567 21.264 169.479 21.264C170.391 21.264 171.119 20.96 171.663 20.352C172.223 19.744 172.503 18.96 172.503 18C172.503 17.04 172.223 16.256 171.663 15.648C171.119 15.04 170.391 14.736 169.479 14.736C168.567 14.736 167.831 15.04 167.271 15.648C166.727 16.256 166.455 17.04 166.455 18C166.455 18.96 166.727 19.744 167.271 20.352Z" fill="white"/>
</svg>
