<svg width="22" height="20" viewBox="0 0 22 20" fill="none" xmlns="http://www.w3.org/2000/svg">
<g id="metamask-icon 1" clip-path="url(#clip0_21_302)">
<path id="Vector" d="M20.477 0.0212402L12.0766 6.26004L13.6304 2.57911L20.477 0.0212402Z" fill="#E2761B"/>
<path id="Vector_2" d="M1.08484 0.0212402L9.41768 6.31908L7.93995 2.57911L1.08484 0.0212402Z" fill="#E4761B"/>
<path id="Vector_3" d="M17.4545 14.4828L15.2173 17.9106L20.0043 19.2274L21.3805 14.5589L17.4545 14.4828Z" fill="#E4761B"/>
<path id="Vector_4" d="M0.198364 14.5589L1.56607 19.2274L6.35306 17.9106L4.11588 14.4828L0.198364 14.5589Z" fill="#E4761B"/>
<path id="Vector_5" d="M6.08293 8.69134L4.74878 10.7093L9.50178 10.9205L9.33316 5.81277L6.08293 8.69134Z" fill="#E4761B"/>
<path id="Vector_6" d="M15.4789 8.69133L12.1866 5.75372L12.0766 10.9204L16.8215 10.7093L15.4789 8.69133Z" fill="#E4761B"/>
<path id="Vector_7" d="M6.35303 17.9106L9.20653 16.5174L6.74125 14.5924L6.35303 17.9106Z" fill="#E4761B"/>
<path id="Vector_8" d="M12.3553 16.5174L15.2173 17.9106L14.8206 14.5924L12.3553 16.5174Z" fill="#E4761B"/>
<path id="Vector_9" d="M15.2173 17.9106L12.3553 16.5174L12.5834 18.3834L12.5579 19.1683L15.2173 17.9106Z" fill="#D7C1B3"/>
<path id="Vector_10" d="M6.35303 17.9106L9.01242 19.1683L8.99543 18.3834L9.20653 16.5174L6.35303 17.9106Z" fill="#D7C1B3"/>
<path id="Vector_11" d="M9.05452 13.3602L6.67377 12.6594L8.35367 11.891L9.05452 13.3602Z" fill="#233447"/>
<path id="Vector_12" d="M12.5073 13.3602L13.2082 11.891L14.8966 12.6594L12.5073 13.3602Z" fill="#233447"/>
<path id="Vector_13" d="M6.35303 17.9106L6.75824 14.4828L4.11584 14.5589L6.35303 17.9106Z" fill="#CD6116"/>
<path id="Vector_14" d="M14.8121 14.4828L15.2173 17.9106L17.4545 14.5589L14.8121 14.4828Z" fill="#CD6116"/>
<path id="Vector_15" d="M16.8215 10.7094L12.0766 10.9205L12.5158 13.3602L13.2166 11.891L14.905 12.6594L16.8215 10.7094Z" fill="#CD6116"/>
<path id="Vector_16" d="M6.67377 12.6594L8.36217 11.891L9.05452 13.3602L9.50178 10.9205L4.74878 10.7094L6.67377 12.6594Z" fill="#CD6116"/>
<path id="Vector_17" d="M4.74878 10.7094L6.7413 14.5925L6.67377 12.6594L4.74878 10.7094Z" fill="#E4751F"/>
<path id="Vector_18" d="M14.9051 12.6594L14.8206 14.5925L16.8216 10.7094L14.9051 12.6594Z" fill="#E4751F"/>
<path id="Vector_19" d="M9.50177 10.9204L9.0545 13.3602L9.61178 16.2388L9.73836 12.4483L9.50177 10.9204Z" fill="#E4751F"/>
<path id="Vector_20" d="M12.0766 10.9204L11.8489 12.4398L11.95 16.2388L12.5158 13.3602L12.0766 10.9204Z" fill="#E4751F"/>
<path id="Vector_21" d="M12.5158 13.3602L11.9501 16.2388L12.3553 16.5174L14.8206 14.5925L14.9051 12.6594L12.5158 13.3602Z" fill="#F6851B"/>
<path id="Vector_22" d="M6.67377 12.6594L6.7413 14.5925L9.20658 16.5174L9.6118 16.2388L9.05452 13.3602L6.67377 12.6594Z" fill="#F6851B"/>
<path id="Vector_23" d="M12.5578 19.1683L12.5833 18.3834L12.3722 18.1974H9.18954L8.99543 18.3834L9.01242 19.1683L6.35303 17.9106L7.28154 18.6701L9.16405 19.9788H12.3977L14.2887 18.6701L15.2172 17.9106L12.5578 19.1683Z" fill="#C0AD9E"/>
<path id="Vector_24" d="M12.3553 16.5174L11.9501 16.2388H9.6118L9.20659 16.5174L8.99548 18.3834L9.1896 18.1973H12.3723L12.5834 18.3834L12.3553 16.5174Z" fill="#161616"/>
<path id="Vector_25" d="M20.8317 6.66525L21.5491 3.22092L20.477 0.0212402L12.3553 6.04893L15.4789 8.69133L19.8943 9.98301L20.8737 8.8434L20.4515 8.5397L21.1269 7.92338L20.6036 7.51816L21.279 7.00293L20.8317 6.66525Z" fill="#763D16"/>
<path id="Vector_26" d="M0.0212402 3.22092L0.738651 6.66525L0.282889 7.00293L0.958249 7.51816L0.443446 7.92338L1.11881 8.5397L0.6966 8.8434L1.66759 9.98301L6.08292 8.69133L9.20656 6.04893L1.08483 0.0212402L0.0212402 3.22092Z" fill="#763D16"/>
<path id="Vector_27" d="M19.8943 9.98302L15.4789 8.69135L16.8216 10.7094L14.8206 14.5925L17.4545 14.5589H21.3805L19.8943 9.98302Z" fill="#F6851B"/>
<path id="Vector_28" d="M6.08292 8.69135L1.66759 9.98302L0.198364 14.5589H4.11588L6.74129 14.5925L4.74876 10.7094L6.08292 8.69135Z" fill="#F6851B"/>
<path id="Vector_29" d="M12.0766 10.9204L12.3553 6.04892L13.6389 2.5791H7.93994L9.20656 6.04892L9.50176 10.9204L9.60328 12.4568L9.61178 16.2388H11.9501L11.967 12.4568L12.0766 10.9204Z" fill="#F6851B"/>
</g>
<defs>
<clipPath id="clip0_21_302">
<rect width="21.5703" height="20" fill="white"/>
</clipPath>
</defs>
</svg>
